<svg width="24" height="24" viewBox="0 0 24 24" fill="none" xmlns="http://www.w3.org/2000/svg">
<g id="icon_close">
<mask id="mask0_390_2674" style="mask-type:alpha" maskUnits="userSpaceOnUse" x="0" y="0" width="24" height="24">
<rect id="Bounding box" width="24" height="24" fill="#D9D9D9"/>
</mask>
<g mask="url(#mask0_390_2674)">
<path id="close" d="M12.0001 13.5909L7.19575 18.3953C6.98451 18.6065 6.7193 18.7121 6.4001 18.7121C6.0809 18.7121 5.81568 18.6065 5.60445 18.3953C5.39321 18.184 5.2876 17.9188 5.2876 17.5996C5.2876 17.2804 5.39321 17.0152 5.60445 16.804L10.4088 11.9996L5.60445 7.19526C5.39321 6.98403 5.2876 6.71881 5.2876 6.39961C5.2876 6.08041 5.39321 5.81519 5.60445 5.60396C5.81568 5.39273 6.0809 5.28711 6.4001 5.28711C6.7193 5.28711 6.98451 5.39273 7.19575 5.60396L12.0001 10.4083L16.8044 5.60396C17.0157 5.39273 17.2809 5.28711 17.6001 5.28711C17.9193 5.28711 18.1845 5.39273 18.3957 5.60396C18.607 5.81519 18.7126 6.08041 18.7126 6.39961C18.7126 6.71881 18.607 6.98403 18.3957 7.19526L13.5914 11.9996L18.3957 16.804C18.607 17.0152 18.7126 17.2804 18.7126 17.5996C18.7126 17.9188 18.607 18.184 18.3957 18.3953C18.1845 18.6065 17.9193 18.7121 17.6001 18.7121C17.2809 18.7121 17.0157 18.6065 16.8044 18.3953L12.0001 13.5909Z" fill="#999B9D"/>
</g>
</g>
</svg>
