<svg width="24" height="24" viewBox="0 0 24 24" fill="none" xmlns="http://www.w3.org/2000/svg">
<g id="Type=Previous page">
<mask id="mask0_357_2428" style="mask-type:alpha" maskUnits="userSpaceOnUse" x="0" y="0" width="24" height="24">
<rect id="Bounding box" width="24" height="24" fill="#D9D9D9"/>
</mask>
<g mask="url(#mask0_357_2428)">
<path id="chevron" d="M11.0382 12L15.2061 16.1973C15.402 16.3946 15.5 16.6457 15.5 16.9507C15.5 17.2556 15.402 17.5067 15.2061 17.704C15.0102 17.9013 14.7608 18 14.458 18C14.1552 18 13.9059 17.9013 13.7099 17.704L8.79389 12.7534C8.68702 12.6457 8.61132 12.5291 8.56679 12.4036C8.52226 12.278 8.5 12.1435 8.5 12C8.5 11.8565 8.52226 11.722 8.56679 11.5964C8.61132 11.4709 8.68702 11.3543 8.79389 11.2466L13.7099 6.29596C13.9059 6.09865 14.1552 6 14.458 6C14.7608 6 15.0102 6.09865 15.2061 6.29596C15.402 6.49327 15.5 6.74439 15.5 7.04933C15.5 7.35426 15.402 7.60538 15.2061 7.80269L11.0382 12Z" fill="#808284"/>
</g>
</g>
</svg>
