<svg width="24" height="25" viewBox="0 0 24 25" fill="none" xmlns="http://www.w3.org/2000/svg">
<path d="M4 21.1602C3.45 21.1602 2.97917 20.9643 2.5875 20.5727C2.19583 20.181 2 19.7102 2 19.1602V5.16016C2 4.61016 2.19583 4.13932 2.5875 3.74766C2.97917 3.35599 3.45 3.16016 4 3.16016H10C10.55 3.16016 11.0208 3.35599 11.4125 3.74766C11.8042 4.13932 12 4.61016 12 5.16016V7.16016H20C20.55 7.16016 21.0208 7.35599 21.4125 7.74766C21.8042 8.13932 22 8.61016 22 9.16016V19.1602C22 19.7102 21.8042 20.181 21.4125 20.5727C21.0208 20.9643 20.55 21.1602 20 21.1602H4ZM4 19.1602H10V17.1602H4V19.1602ZM4 15.1602H10V13.1602H4V15.1602ZM4 11.1602H10V9.16016H4V11.1602ZM4 7.16016H10V5.16016H4V7.16016ZM12 19.1602H20V9.16016H12V19.1602ZM15 13.1602C14.7167 13.1602 14.4792 13.0643 14.2875 12.8727C14.0958 12.681 14 12.4435 14 12.1602C14 11.8768 14.0958 11.6393 14.2875 11.4477C14.4792 11.256 14.7167 11.1602 15 11.1602H17C17.2833 11.1602 17.5208 11.256 17.7125 11.4477C17.9042 11.6393 18 11.8768 18 12.1602C18 12.4435 17.9042 12.681 17.7125 12.8727C17.5208 13.0643 17.2833 13.1602 17 13.1602H15ZM15 17.1602C14.7167 17.1602 14.4792 17.0643 14.2875 16.8727C14.0958 16.681 14 16.4435 14 16.1602C14 15.8768 14.0958 15.6393 14.2875 15.4477C14.4792 15.256 14.7167 15.1602 15 15.1602H17C17.2833 15.1602 17.5208 15.256 17.7125 15.4477C17.9042 15.6393 18 15.8768 18 16.1602C18 16.4435 17.9042 16.681 17.7125 16.8727C17.5208 17.0643 17.2833 17.1602 17 17.1602H15Z" fill="white" fill-opacity="0.75"/>
</svg>
