<svg width="24" height="24" viewBox="0 0 24 24" fill="none" xmlns="http://www.w3.org/2000/svg">
<g id="icon_visibility">
<mask id="mask0_475_225" style="mask-type:alpha" maskUnits="userSpaceOnUse" x="0" y="0" width="24" height="24">
<rect id="Bounding box" width="24" height="24" fill="#00C2FF"/>
</mask>
<g mask="url(#mask0_475_225)">
<path id="visibility_off" d="M19.7282 22.6718L15.6358 18.6234C15.0485 18.8147 14.4509 18.9562 13.8429 19.0478C13.2349 19.1395 12.6206 19.1853 12 19.1853C9.74271 19.1853 7.67713 18.5814 5.80321 17.3734C3.92931 16.1654 2.46138 14.5661 1.39941 12.5756C1.30413 12.4056 1.23465 12.2315 1.19099 12.0533C1.14732 11.875 1.12549 11.6906 1.12549 11.5C1.12549 11.3094 1.14732 11.125 1.19099 10.9468C1.23465 10.7685 1.30413 10.5944 1.39941 10.4245C1.75413 9.79041 2.13583 9.17302 2.54451 8.57228C2.95321 7.97157 3.4246 7.42954 3.95866 6.94621L1.23256 4.18208L2.69834 2.71631L21.188 21.212L19.7282 22.6718ZM12 16C12.1634 16 12.3194 15.9927 12.4682 15.978C12.6169 15.9633 12.7666 15.933 12.9174 15.887L7.60104 10.5826C7.55902 10.7333 7.53167 10.8831 7.51899 11.0318C7.5063 11.1805 7.49996 11.3366 7.49996 11.5C7.49996 12.75 7.93746 13.8125 8.81246 14.6875C9.68746 15.5625 10.75 16 12 16ZM19.4913 16.5158L16.1549 13.1984C16.2675 12.931 16.3532 12.6553 16.4119 12.3712C16.4706 12.0871 16.5 11.7967 16.5 11.5C16.5 10.25 16.0625 9.18751 15.1875 8.31251C14.3125 7.43751 13.25 7.00001 12 7.00001C11.7032 7.00001 11.4138 7.03035 11.1318 7.09103C10.8497 7.15173 10.573 7.24277 10.3016 7.36413L7.60214 4.66468C8.31011 4.37737 9.03057 4.16387 9.76354 4.02418C10.4965 3.88452 11.242 3.81468 12 3.81468C14.2572 3.81468 16.327 4.42283 18.2092 5.63913C20.0914 6.85543 21.5635 8.46087 22.6255 10.4554C22.7168 10.6127 22.7853 10.7794 22.8309 10.9557C22.8766 11.132 22.8994 11.3134 22.8994 11.5C22.8994 11.6866 22.8808 11.869 22.8434 12.0473C22.8061 12.2256 22.7418 12.3933 22.6505 12.5506C22.2585 13.3219 21.8039 14.0423 21.2869 14.7117C20.7699 15.3811 20.1713 15.9824 19.4913 16.5158ZM14.4418 11.4853L11.9918 9.03534C12.3454 8.96795 12.6885 8.99431 13.0212 9.11441C13.3538 9.23453 13.6358 9.42502 13.8674 9.68588C14.0989 9.93407 14.2662 10.214 14.3693 10.5256C14.4723 10.8371 14.4965 11.1571 14.4418 11.4853Z" fill="#B3B5B7"/>
</g>
</g>
</svg>
