<svg width="24" height="24" viewBox="0 0 24 24" fill="none" xmlns="http://www.w3.org/2000/svg">
<g id="Type=First page">
<mask id="mask0_359_2433" style="mask-type:alpha" maskUnits="userSpaceOnUse" x="0" y="0" width="24" height="24">
<rect id="Bounding box" width="24" height="24" fill="#D9D9D9"/>
</mask>
<g mask="url(#mask0_359_2433)">
<path id="chevron" d="M13.5382 12L17.7061 16.1973C17.902 16.3946 18 16.6457 18 16.9507C18 17.2556 17.902 17.5067 17.7061 17.704C17.5102 17.9013 17.2608 18 16.958 18C16.6552 18 16.4059 17.9013 16.2099 17.704L11.2939 12.7534C11.187 12.6457 11.1113 12.5291 11.0668 12.4036C11.0223 12.278 11 12.1435 11 12C11 11.8565 11.0223 11.722 11.0668 11.5964C11.1113 11.4709 11.187 11.3543 11.2939 11.2466L16.2099 6.29596C16.4059 6.09865 16.6552 6 16.958 6C17.2608 6 17.5102 6.09865 17.7061 6.29596C17.902 6.49327 18 6.74439 18 7.04933C18 7.35426 17.902 7.60538 17.7061 7.80269L13.5382 12Z" fill="#808284"/>
<rect id="Rectangle 4263" x="7" y="6" width="2" height="12" rx="1" fill="#808284"/>
</g>
</g>
</svg>
