<svg width="29" height="28" viewBox="0 0 29 28" fill="none" xmlns="http://www.w3.org/2000/svg">
<path fill-rule="evenodd" clip-rule="evenodd" d="M14.5 8.48C16.19 8.48 17.33 9.21 17.98 9.82L20.52 7.34C18.96 5.89 16.93 5 14.5 5C10.98 5 7.93996 7.02 6.45996 9.96L9.36996 12.22C10.1 10.05 12.12 8.48 14.5 8.48Z" fill="#EA4335"/>
<path fill-rule="evenodd" clip-rule="evenodd" d="M23.14 14.2C23.14 13.46 23.08 12.92 22.95 12.36H14.5V15.7H19.46C19.36 16.53 18.82 17.78 17.62 18.62L20.46 20.82C22.16 19.25 23.14 16.94 23.14 14.2Z" fill="#4285F4"/>
<path fill-rule="evenodd" clip-rule="evenodd" d="M9.38 15.78C9.19 15.22 9.08 14.62 9.08 14C9.08 13.38 9.19 12.78 9.37 12.22L6.46 9.95996C5.85 11.18 5.5 12.55 5.5 14C5.5 15.45 5.85 16.82 6.46 18.04L9.38 15.78Z" fill="#FBBC05"/>
<path fill-rule="evenodd" clip-rule="evenodd" d="M14.4997 23C16.9297 23 18.9697 22.2 20.4597 20.82L17.6197 18.62C16.8597 19.15 15.8397 19.52 14.4997 19.52C12.1197 19.52 10.0997 17.95 9.37973 15.78L6.46973 18.04C7.94973 20.98 10.9797 23 14.4997 23Z" fill="#34A853"/>
</svg>
