<svg width="24" height="24" viewBox="0 0 24 24" fill="none" xmlns="http://www.w3.org/2000/svg">
<g id="Type=Next page">
<mask id="mask0_359_2430" style="mask-type:alpha" maskUnits="userSpaceOnUse" x="0" y="0" width="24" height="24">
<rect id="Bounding box" width="24" height="24" fill="#D9D9D9"/>
</mask>
<g mask="url(#mask0_359_2430)">
<path id="chevron" d="M12.9618 12L8.79389 16.1973C8.59796 16.3946 8.5 16.6457 8.5 16.9507C8.5 17.2556 8.59796 17.5067 8.79389 17.704C8.98982 17.9013 9.23919 18 9.54199 18C9.84478 18 10.0941 17.9013 10.2901 17.704L15.2061 12.7534C15.313 12.6457 15.3887 12.5291 15.4332 12.4036C15.4777 12.278 15.5 12.1435 15.5 12C15.5 11.8565 15.4777 11.722 15.4332 11.5964C15.3887 11.4709 15.313 11.3543 15.2061 11.2466L10.2901 6.29596C10.0941 6.09865 9.84478 6 9.54199 6C9.23919 6 8.98982 6.09865 8.79389 6.29596C8.59796 6.49327 8.5 6.74439 8.5 7.04933C8.5 7.35426 8.59796 7.60538 8.79389 7.80269L12.9618 12Z" fill="#808284"/>
</g>
</g>
</svg>
