<svg width="24" height="24" viewBox="0 0 24 24" fill="none" xmlns="http://www.w3.org/2000/svg">
<g id="icon_newtab">
<mask id="mask0_294_1724" style="mask-type:alpha" maskUnits="userSpaceOnUse" x="0" y="0" width="24" height="24">
<rect id="Bounding box" width="24" height="24" fill="#D9D9D9"/>
</mask>
<g mask="url(#mask0_294_1724)">
<path id="arrow_right_alt" d="M16.15 12.5349H5C4.71667 12.5349 4.47917 12.4395 4.2875 12.2487C4.09583 12.0578 4 11.8213 4 11.5392C4 11.2571 4.09583 11.0206 4.2875 10.8298C4.47917 10.6389 4.71667 10.5435 5 10.5435H16.15L13.3 7.70567C13.1 7.50653 13.0042 7.27419 13.0125 7.00867C13.0208 6.74314 13.1167 6.51081 13.3 6.31166C13.5 6.11252 13.7375 6.0088 14.0125 6.0005C14.2875 5.9922 14.525 6.08762 14.725 6.28677L19.3 10.8422C19.4 10.9418 19.4708 11.0496 19.5125 11.1658C19.5542 11.282 19.575 11.4064 19.575 11.5392C19.575 11.672 19.5542 11.7964 19.5125 11.9126C19.4708 12.0288 19.4 12.1366 19.3 12.2362L14.725 16.7916C14.525 16.9908 14.2875 17.0862 14.0125 17.0779C13.7375 17.0696 13.5 16.9659 13.3 16.7668C13.1167 16.5676 13.0208 16.3353 13.0125 16.0697C13.0042 15.8042 13.1 15.5719 13.3 15.3727L16.15 12.5349Z" fill="#00C2FF"/>
</g>
</g>
</svg>
