<svg width="24" height="24" viewBox="0 0 24 24" fill="none" xmlns="http://www.w3.org/2000/svg">
<g id="Show=True">
<mask id="mask0_50_1391" style="mask-type:alpha" maskUnits="userSpaceOnUse" x="0" y="0" width="24" height="24">
<rect id="Bounding box" width="24" height="24" fill="#00C2FF"/>
</mask>
<g mask="url(#mask0_50_1391)">
<path id="visibility" d="M12 16C13.25 16 14.3125 15.5625 15.1875 14.6875C16.0625 13.8125 16.5 12.75 16.5 11.5C16.5 10.25 16.0625 9.18752 15.1875 8.31252C14.3125 7.43752 13.25 7.00002 12 7.00002C10.75 7.00002 9.68746 7.43752 8.81246 8.31252C7.93746 9.18752 7.49996 10.25 7.49996 11.5C7.49996 12.75 7.93746 13.8125 8.81246 14.6875C9.68746 15.5625 10.75 16 12 16ZM12.001 14.0745C11.2862 14.0745 10.6782 13.8243 10.1771 13.3239C9.67605 12.8235 9.42551 12.2159 9.42551 11.5011C9.42551 10.7862 9.67571 10.1783 10.1761 9.6772C10.6765 9.17611 11.2841 8.92557 11.9989 8.92557C12.7137 8.92557 13.3217 9.17576 13.8228 9.67615C14.3239 10.1765 14.5744 10.7841 14.5744 11.499C14.5744 12.2138 14.3242 12.8218 13.8238 13.3228C13.3235 13.8239 12.7158 14.0745 12.001 14.0745ZM12 19.1853C9.74271 19.1853 7.6813 18.5814 5.81571 17.3734C3.95015 16.1654 2.48004 14.5662 1.40539 12.5756C1.3101 12.4056 1.23964 12.2305 1.19399 12.0503C1.14832 11.87 1.12549 11.6866 1.12549 11.5C1.12549 11.3134 1.14832 11.13 1.19399 10.9497C1.23964 10.7695 1.3101 10.5944 1.40539 10.4245C2.48004 8.43389 3.95015 6.83461 5.81571 5.62665C7.6813 4.41868 9.74271 3.8147 12 3.8147C14.2572 3.8147 16.3186 4.41868 18.1842 5.62665C20.0498 6.83461 21.5199 8.43389 22.5945 10.4245C22.6898 10.5944 22.7603 10.7695 22.8059 10.9497C22.8516 11.13 22.8744 11.3134 22.8744 11.5C22.8744 11.6866 22.8516 11.87 22.8059 12.0503C22.7603 12.2305 22.6898 12.4056 22.5945 12.5756C21.5199 14.5662 20.0498 16.1654 18.1842 17.3734C16.3186 18.5814 14.2572 19.1853 12 19.1853Z" fill="#00C2FF"/>
</g>
</g>
</svg>
