<svg width="24" height="24" viewBox="0 0 24 24" fill="none" xmlns="http://www.w3.org/2000/svg">
<g id="Selected=True">
<path id="Subtract" fill-rule="evenodd" clip-rule="evenodd" d="M4.40041 18.5C6.2345 16.3577 8.9587 15 12 15C15.0413 15 17.7655 16.3577 19.5996 18.5C21.0961 16.752 22 14.4815 22 12C22 6.47715 17.5228 2 12 2C6.47715 2 2 6.47715 2 12C2 14.4815 2.9039 16.752 4.40041 18.5ZM15.5 9.5C15.5 11.433 13.933 13 12 13C10.067 13 8.5 11.433 8.5 9.5C8.5 7.567 10.067 6 12 6C13.933 6 15.5 7.567 15.5 9.5Z" fill="white"/>
</g>
</svg>
