<svg width="24" height="24" viewBox="0 0 24 24" fill="none" xmlns="http://www.w3.org/2000/svg">
<g id="Selected=True">
<path id="policy" d="M12 21.9C11.8833 21.9 11.775 21.8917 11.675 21.875C11.575 21.8583 11.475 21.8333 11.375 21.8C9.125 21.05 7.33333 19.6625 6 17.6375C4.66667 15.6125 4 13.4333 4 11.1V6.37499C4 5.95833 4.12083 5.58333 4.3625 5.24999C4.60417 4.91666 4.91667 4.67499 5.3 4.52499L11.3 2.27499C11.5333 2.19166 11.7667 2.14999 12 2.14999C12.2333 2.14999 12.4667 2.19166 12.7 2.27499L18.7 4.52499C19.0833 4.67499 19.3958 4.91666 19.6375 5.24999C19.8792 5.58333 20 5.95833 20 6.37499V11.1C20 12.15 19.8625 13.1708 19.5875 14.1625C19.3125 15.1542 18.9167 16.1 18.4 17L15.45 14.05C15.6333 13.7333 15.7708 13.4042 15.8625 13.0625C15.9542 12.7208 16 12.3667 16 12C16 10.9 15.6083 9.95833 14.825 9.17499C14.0417 8.39166 13.1 7.99999 12 7.99999C10.9 7.99999 9.95833 8.39166 9.175 9.17499C8.39167 9.95833 8 10.9 8 12C8 13.1 8.39167 14.0417 9.175 14.825C9.95833 15.6083 10.9 16 12 16C12.35 16 12.6958 15.9542 13.0375 15.8625C13.3792 15.7708 13.7 15.6333 14 15.45L17.225 18.65C16.5917 19.4 15.8958 20.0375 15.1375 20.5625C14.3792 21.0875 13.5417 21.5 12.625 21.8C12.525 21.8333 12.425 21.8583 12.325 21.875C12.225 21.8917 12.1167 21.9 12 21.9ZM12 14C11.45 14 10.9792 13.8042 10.5875 13.4125C10.1958 13.0208 10 12.55 10 12C10 11.45 10.1958 10.9792 10.5875 10.5875C10.9792 10.1958 11.45 9.99999 12 9.99999C12.55 9.99999 13.0208 10.1958 13.4125 10.5875C13.8042 10.9792 14 11.45 14 12C14 12.55 13.8042 13.0208 13.4125 13.4125C13.0208 13.8042 12.55 14 12 14Z" fill="white"/>
</g>
</svg>
