<svg width="24" height="24" viewBox="0 0 24 24" fill="none" xmlns="http://www.w3.org/2000/svg">
<g id="Type=Last page">
<mask id="mask0_359_2436" style="mask-type:alpha" maskUnits="userSpaceOnUse" x="0" y="0" width="24" height="24">
<rect id="Bounding box" width="24" height="24" fill="#D9D9D9"/>
</mask>
<g mask="url(#mask0_359_2436)">
<path id="chevron" d="M10.4618 12L6.29389 7.80269C6.09797 7.60538 6 7.35426 6 7.04933C6 6.74439 6.09797 6.49327 6.29389 6.29596C6.48982 6.09865 6.73919 6 7.04199 6C7.34478 6 7.59415 6.09865 7.79008 6.29596L12.7061 11.2466C12.813 11.3543 12.8887 11.4709 12.9332 11.5964C12.9777 11.722 13 11.8565 13 12C13 12.1435 12.9777 12.278 12.9332 12.4036C12.8887 12.5291 12.813 12.6457 12.7061 12.7534L7.79008 17.704C7.59415 17.9013 7.34478 18 7.04199 18C6.73919 18 6.48982 17.9013 6.29389 17.704C6.09796 17.5067 6 17.2556 6 16.9507C6 16.6457 6.09796 16.3946 6.29389 16.1973L10.4618 12Z" fill="#808284"/>
<rect id="Rectangle 4263" x="15" y="6" width="2" height="12" rx="1" fill="#808284"/>
</g>
</g>
</svg>
