<svg width="24" height="24" viewBox="0 0 24 24" fill="none" xmlns="http://www.w3.org/2000/svg">
<g id="icon_power_on">
<path id="bolt" d="M10.1836 14.5379H7.70383C7.4283 14.5379 7.22493 14.4076 7.09372 14.1469C6.96251 13.8863 6.96907 13.6292 7.1134 13.3756L12.447 4.43602C12.5519 4.23877 12.7028 4.10845 12.8996 4.04505C13.0964 3.98165 13.2933 3.98517 13.4901 4.05561C13.6869 4.12606 13.841 4.25638 13.9526 4.44659C14.0641 4.63679 14.1067 4.8446 14.0805 5.07003L13.4901 10.4802H16.2848C16.5866 10.4802 16.7998 10.6211 16.9244 10.9029C17.0491 11.1847 17.0195 11.4524 16.8359 11.706L11.0103 19.6311C10.879 19.8002 10.7183 19.9129 10.5281 19.9693C10.3378 20.0256 10.1508 20.0045 9.96716 19.9059C9.78347 19.8072 9.64242 19.6628 9.54401 19.4726C9.44561 19.2824 9.41609 19.0816 9.45545 18.8703L10.1836 14.5379Z" fill="#00C2FF"/>
</g>
</svg>
