<svg width="25" height="24" viewBox="0 0 25 24" fill="none" xmlns="http://www.w3.org/2000/svg">
<mask id="mask0_1560_3291" style="mask-type:alpha" maskUnits="userSpaceOnUse" x="0" y="0" width="25" height="24">
<rect x="0.5" width="24" height="24" fill="#D9D9D9"/>
</mask>
<g mask="url(#mask0_1560_3291)">
<path d="M20.5 6H4.5V18H21.5C21.7833 18 22.0208 18.0958 22.2125 18.2875C22.4042 18.4792 22.5 18.7167 22.5 19C22.5 19.2833 22.4042 19.5208 22.2125 19.7125C22.0208 19.9042 21.7833 20 21.5 20H4.5C3.95 20 3.47917 19.8042 3.0875 19.4125C2.69583 19.0208 2.5 18.55 2.5 18V6C2.5 5.45 2.69583 4.97917 3.0875 4.5875C3.47917 4.19583 3.95 4 4.5 4H20.5C21.05 4 21.5208 4.19583 21.9125 4.5875C22.3042 4.97917 22.5 5.45 22.5 6V19C22.5 19.2833 21.928 19.4033 21.928 19.1158C21.7364 19.3075 21.7833 19 21.5 19C21.2167 19 20.9792 18.9042 20.7875 18.7125C20.5958 18.5208 20.5 18.2833 20.5 18V6ZM4.5 6V18V13V13.075V6ZM12.5 11L20.5 6V8L13.025 12.675C12.8583 12.775 12.6833 12.825 12.5 12.825C12.3167 12.825 12.1417 12.775 11.975 12.675L4.5 8V6L12.5 11Z" fill="#4D4F51"/>
</g>
</svg>
